<?xml version="1.0" encoding="UTF-8" standalone="no"?>
<!-- Created with Inkscape (http://www.inkscape.org/) -->

<svg
   xmlns:dc="http://purl.org/dc/elements/1.1/"
   xmlns:cc="http://creativecommons.org/ns#"
   xmlns:rdf="http://www.w3.org/1999/02/22-rdf-syntax-ns#"
   xmlns:svg="http://www.w3.org/2000/svg"
   xmlns="http://www.w3.org/2000/svg"
   xmlns:sodipodi="http://sodipodi.sourceforge.net/DTD/sodipodi-0.dtd"
   xmlns:inkscape="http://www.inkscape.org/namespaces/inkscape"
   width="383.54681mm"
   height="118.13822mm"
   viewBox="0 0 383.54681 118.13822"
   version="1.1"
   id="svg8"
   inkscape:version="0.92.2 (5c3e80d, 2017-08-06)"
   sodipodi:docname="BetterWorld.svg">
  <defs
     id="defs2" />
  <sodipodi:namedview
     id="base"
     pagecolor="#ffffff"
     bordercolor="#666666"
     borderopacity="1.0"
     inkscape:pageopacity="0.0"
     inkscape:pageshadow="2"
     inkscape:zoom="0.70710678"
     inkscape:cx="720.22819"
     inkscape:cy="103.01364"
     inkscape:document-units="mm"
     inkscape:current-layer="flowRoot868"
     showgrid="false"
     showborder="false"
     inkscape:snap-bbox="true"
     inkscape:bbox-nodes="true"
     inkscape:snap-intersection-paths="true"
     inkscape:object-paths="true"
     inkscape:snap-object-midpoints="false"
     inkscape:snap-smooth-nodes="true"
     inkscape:snap-bbox-edge-midpoints="true"
     inkscape:measure-start="599.856,540.029"
     inkscape:measure-end="599.856,581.361"
     showguides="true"
     inkscape:guide-bbox="true"
     inkscape:window-width="1920"
     inkscape:window-height="1001"
     inkscape:window-x="-9"
     inkscape:window-y="-9"
     inkscape:window-maximized="1"
     inkscape:pagecheckerboard="true" />
  <metadata
     id="metadata5">
    <rdf:RDF>
      <cc:Work
         rdf:about="">
        <dc:format>image/svg+xml</dc:format>
        <dc:type
           rdf:resource="http://purl.org/dc/dcmitype/StillImage" />
        <dc:title></dc:title>
      </cc:Work>
    </rdf:RDF>
  </metadata>
  <g
     inkscape:groupmode="layer"
     id="layer3"
     inkscape:label="Layer 3"
     transform="translate(0.1399743)"
     style="display:inline">
    <path
       style="display:inline;fill:#ff0000;fill-opacity:1;fill-rule:evenodd;stroke:#000000;stroke-width:0.99999994px;stroke-linecap:butt;stroke-linejoin:miter;stroke-opacity:1"
       d="m 314.87305,49.591797 c -17.47017,0 -18.21145,0.115411 -25.15821,3.962891 -3.93659,2.180329 -10.23659,7.350081 -14,11.488281 -6.11016,6.71872 -7.16799,7.376471 -9.88867,6.144531 -2.30034,-1.0416 -4.16283,-0.846851 -7.60156,0.792969 -7.12582,3.39806 -9.20258,7.628978 -8.24414,16.798828 0.77104,7.37692 0.59311,8.016385 -3.60352,12.953123 -15.16833,17.84346 -23.5039,37.79988 -23.5039,56.26953 0,6.78285 0.93318,13.68269 2.55468,18.89258 l 2.55469,8.20508 -4.22265,2.57617 c -8.1669,4.98199 -31.16499,14.36552 -45.61329,18.61133 -28.13889,8.26897 -42.27431,18.91956 -52.51757,39.56836 -2.98228,6.01183 -5.42188,11.44966 -5.42188,12.08398 0,1.80491 -6.87116,7.77908 -11.81836,10.27735 -11.071978,5.59121 -28.949818,3.6214 -37.537108,-4.13672 -12.451959,-11.24957 -10.29304,-38.17376 4.22461,-52.69141 4.3037,-4.30369 5.68489,-4.95323 9.09375,-4.27148 4.75619,0.95123 11.614272,-1.58117 13.419922,-4.95508 0.70531,-1.31788 1.283203,-4.20621 1.283203,-6.41992 0,-7.86043 4.074003,-12.43951 13.666013,-15.35742 3.78274,-1.15072 2.70811,-3.21614 -3.26172,-6.26172 -11.081646,-5.65342 -28.658764,-1.03021 -34.648434,9.11328 -3.20629,5.42982 -4.648199,12.8147 -2.068359,16.35547 3.0008,4.11855 3.294225,7.93033 -5.265625,16.04882 -7.8054,10.55875 -10.402463,15.50102 -11.507813,28.61719 -0.04532,13.57526 3.5605,22.51007 12.125,30.04883 7.40276,6.51617 14.094697,8.62903 26.716797,8.43359 8.261004,-0.12775 11.172384,-0.8548 19.000004,-4.74023 l 9.24414,-4.58789 v 5.33594 c 0,2.93545 2.15062,14.06192 4.77929,24.72461 4.56641,18.52275 4.73822,20.05541 3.8418,34.40234 -0.69158,11.06827 -1.60648,16.16106 -3.47852,19.36719 -12.70679,21.76222 -11.6859,27.15236 4.94532,26.09961 6.43106,-0.40706 6.65339,-0.56654 9.91211,-7.08399 3.13083,-6.26162 3.30886,-7.73966 2.9375,-24.32226 -0.36786,-16.42624 -0.11351,-18.5985 3.65625,-31.19922 6.79723,-22.72036 12.31428,-29.66041 22.96484,-28.89453 5.21598,0.37493 6.0166,0.91195 8.27539,5.53711 1.37561,2.81673 2.93329,7.03547 3.46094,9.375 1.47426,6.53662 -0.92563,22.9401 -5.19336,35.5039 -2.11738,6.23334 -4.05577,14.61499 -4.30859,18.62696 l -0.45899,7.29492 7.33203,2.99804 c 10.23019,4.18212 19.12317,4.07783 23.47656,-0.27539 2.47071,-2.47068 3.1152,-4.14144 2.44141,-6.33398 -1.11704,-3.63488 0.0514,-2.65015 -8.58398,-7.22852 -7.0987,-3.76354 -7.32644,-4.05716 -7.09571,-9.15234 0.28963,-6.39568 4.12267,-15.30344 10.02539,-23.30273 2.41855,-3.27761 7.76674,-12.26091 11.88477,-19.96094 4.45474,-8.32959 8.77653,-14.69215 10.66992,-15.70899 2.1457,-1.15234 7.60564,-1.58534 16.76367,-1.33203 12.86071,0.35565 13.79206,0.5765 17.52539,4.15625 2.16856,2.07934 5.21198,7.0929 6.76172,11.14258 4.16872,10.89355 10.72249,47.38026 10.77149,59.9668 0.0314,8.02689 -0.9,11.10937 -3.35352,11.10937 -2.56888,0 -7.28711,6.52965 -7.28711,10.08399 0,1.71417 1.54357,4.27063 3.51367,5.82031 4.6689,3.67253 18.77736,3.93584 23.00782,0.42969 3.50007,-2.90083 3.91163,-9.68862 1.03125,-17 -2.69833,-6.8493 -2.75735,-20.11848 -0.16407,-37.16211 1.13014,-7.42745 3.10709,-20.40455 4.39258,-28.83789 l 2.33594,-15.33399 h 5.27539 5.27539 l 0.92969,9.33399 c 0.51193,5.13332 1.62781,14.1333 2.47851,20 2.38915,16.47625 3.01136,37.62611 1.35547,46.04297 -0.82034,4.16965 -1.13137,8.51942 -0.6914,9.66601 1.44219,3.75822 9.1675,6.29102 19.18945,6.29102 8.39985,0 9.92194,-0.39651 12.88086,-3.35547 2.46481,-2.46474 3.11559,-4.14667 2.44922,-6.33399 -1.43761,-4.71901 -4.59631,-7.52389 -9.50781,-8.44531 -2.50193,-0.46938 -5.42037,-1.72505 -6.48438,-2.78906 -2.497,-2.49702 -2.51768,-13.27538 -0.0449,-22.99024 1.03884,-4.08144 2.88296,-12.43768 4.09766,-18.57031 6.62649,-33.45494 22.45813,-68.62835 39.99023,-88.84961 18.12937,-20.9102 25.99577,-37.09899 28.72656,-59.10937 1.69924,-13.69572 -0.23802,-34.84688 -3.98437,-43.5 -3.11331,-7.191 -14.44185,-24.60676 -19.67578,-30.248049 -2.96311,-3.19373 -3.85421,-4.346797 -2.33594,-11.003907 1.05211,-4.61314 2.6507,-5.354107 -2.45117,-11.748046 -5.1967,-7.07199 -7.5872,-6.729235 -10.99414,-6.390626 -2.66343,0.26456 -5.35999,-1.711261 -9.57227,-6.107421 -3.41307,-3.56209 -9.57002,-7.869805 -14.77148,-10.333985 -8.64555,-4.09584 -9.46978,-4.224609 -26.91797,-4.224609 z M 0.11523438,214.04883 l -0.009766,0.006 0.007813,0.0176 c 2.363e-4,-0.008 0.001716,-0.0156 0.001953,-0.0234 z m 91.99804662,190.52734 0.0039,0.006 0.0078,0.002 c -0.0038,-0.003 -0.0079,-0.005 -0.01172,-0.008 z"
       transform="scale(0.26458333)"
       id="path861"
       inkscape:connector-curvature="0" />
  </g>
  <g
     inkscape:label="Layer 1"
     inkscape:groupmode="layer"
     id="layer1"
     transform="translate(-16.637256,-90.264771)"
     style="display:inline">
    <path
       style="fill:#ffffff;stroke-width:1.33333337"
       d="m 397.72852,341.1582 c -127.43765,10e-4 -146.14433,0.53989 -166.78907,4.80274 -51.21125,10.57441 -98.3327,42.94597 -128.89648,88.54687 -45.093957,67.27979 -51.152582,154.40676 -15.851564,227.9668 32.739044,68.22134 95.146194,112.95705 167.269534,119.90234 6.1968,0.59675 69.91824,1.16547 141.60156,1.26563 l 130.33203,0.18164 V 562.49023 341.1582 Z M 378.2832,390.75 c 17.44819,0 18.27242,0.12877 26.91797,4.22461 5.20146,2.46418 11.35842,6.77189 14.77149,10.33398 4.21228,4.39616 6.90883,6.37199 9.57226,6.10743 3.40694,-0.33861 5.79744,-0.68137 10.99414,6.39062 5.10187,6.39394 3.50328,7.13491 2.45117,11.74805 -1.51827,6.65711 -0.62717,7.81017 2.33594,11.0039 5.23393,5.64129 16.56247,23.05705 19.67578,30.24805 3.74635,8.65312 5.68362,29.80428 3.98438,43.5 -2.73079,22.01038 -10.59719,38.19918 -28.72656,59.10938 -17.5321,20.22126 -33.36374,55.39466 -39.99024,88.8496 -1.2147,6.13263 -3.05881,14.48888 -4.09765,18.57032 -2.47276,9.71486 -2.4521,20.49321 0.0449,22.99023 1.06401,1.06401 3.98244,2.31968 6.48437,2.78906 4.9115,0.92142 8.0702,3.72631 9.50781,8.44532 0.66637,2.18732 0.0156,3.86924 -2.44921,6.33398 -2.95892,2.95896 -4.48101,3.35547 -12.88086,3.35547 -10.02195,0 -17.74727,-2.5328 -19.18946,-6.29102 -0.43997,-1.14659 -0.12893,-5.49636 0.69141,-9.66601 1.65589,-8.41686 1.03368,-29.56672 -1.35547,-46.04297 -0.8507,-5.8667 -1.96658,-14.86668 -2.47851,-20 l -0.92969,-9.33398 h -5.27539 -5.27539 L 360.73047,648.75 c -1.28549,8.43334 -3.26244,21.41044 -4.39258,28.83789 -2.59328,17.04363 -2.53427,30.31281 0.16406,37.16211 2.88038,7.31138 2.46882,14.09917 -1.03125,17 -4.23046,3.50615 -18.33891,3.24284 -23.00781,-0.42969 -1.9701,-1.54968 -3.51367,-4.10614 -3.51367,-5.82031 0,-3.55434 4.71823,-10.08398 7.28711,-10.08398 2.45352,0 3.38488,-3.08249 3.35351,-11.10938 -0.049,-12.58654 -6.60276,-49.07325 -10.77148,-59.9668 -1.54974,-4.04968 -4.59316,-9.06323 -6.76172,-11.14257 -3.73333,-3.57975 -4.66468,-3.8006 -17.52539,-4.15625 -9.15803,-0.25331 -14.61797,0.17969 -16.76367,1.33203 -1.89339,1.01684 -6.21518,7.37939 -10.66992,15.70898 -4.11803,7.70003 -9.46622,16.68333 -11.88477,19.96094 -5.90272,7.99929 -9.73576,16.90705 -10.02539,23.30273 -0.23073,5.09518 -0.003,5.38881 7.0957,9.15235 8.63543,4.57837 7.46695,3.59363 8.58399,7.22851 0.67379,2.19254 0.0293,3.86331 -2.44141,6.33399 -4.3534,4.35322 -13.24637,4.45751 -23.47656,0.27539 l -7.33203,-2.99805 0.45898,-7.29492 c 0.25282,-4.01197 2.19122,-12.39361 4.3086,-18.62695 4.26773,-12.5638 6.66761,-28.96729 5.19335,-35.50391 -0.52765,-2.33953 -2.08532,-6.55827 -3.46093,-9.375 -2.25879,-4.62516 -3.05941,-5.16218 -8.27539,-5.53711 -10.65056,-0.76588 -16.16762,6.17417 -22.96485,28.89453 -3.76976,12.60072 -4.02411,14.77298 -3.65625,31.19922 0.37136,16.5826 0.19333,18.06065 -2.9375,24.32227 -3.25872,6.51745 -3.48105,6.67692 -9.91211,7.08398 -16.63122,1.05275 -17.65211,-4.33739 -4.94531,-26.09961 1.87204,-3.20613 2.78694,-8.29892 3.47852,-19.36719 0.89642,-14.34693 0.72461,-15.87959 -3.8418,-34.40234 -2.62867,-10.66269 -4.7793,-21.78916 -4.7793,-24.72461 v -5.33594 l -9.24414,4.58789 c -7.82762,3.88543 -10.739,4.61249 -19,4.74024 -12.6221,0.19544 -19.31403,-1.91743 -26.71679,-8.4336 -8.5645,-7.53876 -12.17032,-16.47356 -12.125,-30.04882 1.10535,-13.11617 3.70241,-18.05844 11.50781,-28.61719 8.55985,-8.1185 8.26642,-11.93028 5.26562,-16.04883 -2.57984,-3.54077 -1.13793,-10.92565 2.06836,-16.35547 5.98967,-10.14349 23.56679,-14.7667 34.64844,-9.11328 5.96983,3.04558 7.04446,5.111 3.26172,6.26172 -9.59201,2.91791 -13.66602,7.49699 -13.66602,15.35742 0,2.21371 -0.57789,5.10204 -1.2832,6.41992 -1.80565,3.37391 -8.66373,5.90631 -13.41992,4.95508 -3.40886,-0.68175 -4.79005,-0.0322 -9.09375,4.27149 -14.51765,14.51765 -16.67657,41.44183 -4.22461,52.6914 8.58729,7.75812 26.46513,9.72793 37.53711,4.13672 4.9472,-2.49827 11.81836,-8.47243 11.81836,-10.27734 0,-0.63432 2.43959,-6.07216 5.42187,-12.08399 10.24326,-20.6488 24.37869,-31.29939 52.51758,-39.56836 14.4483,-4.24581 37.44638,-13.62934 45.61328,-18.61133 l 4.22266,-2.57617 -2.55469,-8.20508 c -1.6215,-5.20989 -2.55469,-12.10972 -2.55469,-18.89257 0,-18.46965 8.33558,-38.42608 23.50391,-56.26954 4.19663,-4.93674 4.37455,-5.5762 3.60351,-12.95312 -0.95844,-9.16985 1.11833,-13.40077 8.24415,-16.79883 3.43873,-1.63982 5.30122,-1.83457 7.60156,-0.79297 2.72068,1.23194 3.77851,0.57419 9.88867,-6.14453 3.76341,-4.1382 10.06341,-9.30795 14,-11.48828 6.94676,-3.84748 7.68803,-3.96289 25.1582,-3.96289 z"
       transform="scale(0.26458333)"
       id="path851"
       inkscape:connector-curvature="0" />
  </g>
  <g
     inkscape:groupmode="layer"
     id="layer2"
     inkscape:label="Layer 2"
     transform="translate(-16.637256,-90.264771)"
     style="display:inline">
    <g
       aria-label="etter  orld"
       style="font-style:normal;font-variant:normal;font-weight:bold;font-stretch:normal;font-size:67.02777863px;line-height:83.59999657%;font-family:Impact;-inkscape-font-specification:'Impact Bold';font-variant-ligatures:normal;font-variant-caps:normal;font-variant-numeric:normal;font-feature-settings:normal;text-align:start;writing-mode:lr-tb;text-anchor:start;display:inline;opacity:1;fill:#ffffff;fill-opacity:1;fill-rule:evenodd;stroke:none;stroke-width:0.05;stroke-linecap:round;stroke-miterlimit:4;stroke-dasharray:none;stroke-opacity:1"
       id="text857">
      <flowRoot
         xml:space="preserve"
         id="flowRoot818"
         style="font-style:normal;font-variant:normal;font-weight:bold;font-stretch:normal;font-size:266.66668701px;line-height:98.60000014%;font-family:sans;-inkscape-font-specification:'sans Bold';font-variant-ligatures:normal;font-variant-caps:normal;font-variant-numeric:normal;font-feature-settings:normal;text-align:start;writing-mode:lr-tb;text-anchor:start;opacity:1;fill:#ffffff;fill-opacity:1;fill-rule:evenodd;stroke:none;stroke-width:0.18897638;stroke-linecap:round;stroke-miterlimit:4;stroke-dasharray:none;stroke-opacity:1"
         transform="matrix(0.26458333,0,0,0.26458333,16.636718,90.264771)"><flowRegion
           id="flowRegion820"
           style="line-height:98.60000014%"><rect
             id="rect822"
             width="701.44995"
             height="436.992"
             x="709.93518"
             y="23.626513"
             style="line-height:98.60000014%" /></flowRegion><flowPara
           id="flowPara824">etterro o</flowPara><flowPara
           id="flowPara826" /></flowRoot>      <g
         id="g900">
        <path
           sodipodi:nodetypes="ccccscsccccccccssscccccccscccccccccscccccccccscccccsscsccc"
           inkscape:connector-curvature="0"
           d="M 149.86688,180.74498 V 154.1204 h 7.44548 7.44547 l -0.15495,16.56883 c -0.13502,14.4364 -0.0666,16.30907 0.5313,14.55064 0.37745,-1.11 3.50635,-8.51953 6.9531,-16.46562 l 6.26682,-14.44746 7.93277,-0.11338 7.93279,-0.11338 0.33238,4.65398 c 0.18279,2.55969 0.35298,10.04081 0.37819,16.62472 0.0398,10.38051 0.12965,11.69656 0.67681,9.90682 0.34704,-1.13516 3.25046,-8.61171 6.45202,-16.61457 l 5.82103,-14.55064 h 9.62036 c 5.29122,0 9.62037,0.14123 9.62037,0.31383 0,0.17261 -5.50802,12.10723 -12.24007,26.52138 l -12.24007,26.20755 -9.68098,0.11186 -9.68098,0.11186 -0.3357,-4.42673 c -0.18466,-2.4347 -0.48757,-9.60378 -0.67316,-15.93127 l -0.33747,-11.50455 -1.10975,3.02309 c -0.61039,1.6627 -3.4685,8.82785 -6.35136,15.92258 l -5.24156,12.89951 h -9.68141 -9.68143 z m 0,-90.480209 v 26.458329 26.45834 l 11.79364,-0.0127 c 14.48992,-0.0155 20.79227,-0.43214 24.09985,-1.59236 6.59964,-2.31502 9.81948,-7.13585 9.75122,-14.5986 -0.0501,-5.47691 -1.72631,-8.69165 -5.70123,-10.93497 -2.23831,-1.26322 -2.24118,-1.26752 -1.30093,-1.894 4.27042,-2.84531 6.15243,-7.378 5.22353,-12.5784 -0.84854,-4.750595 -3.80853,-8.142654 -8.45451,-9.688737 -3.43952,-1.144603 -10.06501,-1.582654 -24.23323,-1.601969 z m 14.76744,12.227479 5.77875,0.14182 c 5.74842,0.14113 5.78407,0.14822 6.76841,1.29311 1.36841,1.59176 1.36887,4.30963 6e-4,5.90193 -0.9846,1.14581 -1.01472,1.15173 -6.76841,1.2847 l -5.77935,0.13339 v -4.37747 z m 0,18.53802 h 5.55101 c 7.79346,0 9.62684,0.93739 9.62684,4.92248 0,2.23096 -0.83136,3.56675 -2.70701,4.35044 -0.94189,0.39355 -3.10052,0.57205 -6.91983,0.57205 h -5.55101 v -4.92249 z"
           style="font-style:normal;font-variant:normal;font-weight:bold;font-stretch:normal;font-size:70.55555725px;line-height:83.59999657%;font-family:sans;-inkscape-font-specification:'sans Bold';fill:#ffffff;stroke-width:0.05"
           id="path901" />
        <g
           aria-label="etter
 orld"
           transform="matrix(0.26458333,0,0,0.26458333,9.3582641,70.549328)"
           style="font-style:normal;font-variant:normal;font-weight:bold;font-stretch:normal;font-size:266.66668701px;line-height:242.66667175px;font-family:sans;-inkscape-font-specification:'sans Bold';font-variant-ligatures:normal;font-variant-caps:normal;font-variant-numeric:normal;font-feature-settings:normal;text-align:start;writing-mode:lr-tb;text-anchor:start;opacity:1;fill:#ffffff;fill-opacity:1;fill-rule:evenodd;stroke:#ffffff;stroke-width:7.55905533;stroke-linecap:round;stroke-miterlimit:4;stroke-dasharray:none;stroke-opacity:1"
           id="flowRoot868">
          <path
             d="m 876.49025,197.49219 v 13.28125 H 767.50586 q 1.69271,16.40625 11.84896,24.60938 10.15625,8.20313 28.38542,8.20313 14.71354,0 30.07813,-4.29688 15.49479,-4.42708 31.77083,-13.28125 v 35.9375 q -16.53645,6.25 -33.07291,9.375 -16.53646,3.25521 -33.07292,3.25521 -39.58334,0 -61.58855,-20.05208 -21.875,-20.1823 -21.875,-56.51042 0,-35.67709 21.48438,-56.1198 21.61458,-20.44271 59.375,-20.44271 34.375,0 54.94792,20.70313 20.70313,20.70312 20.70313,55.33854 z M 828.57358,181.9974 q 0,-13.28125 -7.8125,-21.35417 -7.6823,-8.20312 -20.1823,-8.20312 -13.54166,0 -22.00521,7.68229 -8.46354,7.55208 -10.54687,21.875 z"
             style="font-style:normal;font-variant:normal;font-weight:bold;font-stretch:normal;line-height:242.66667175px;font-family:sans-serif;-inkscape-font-specification:'sans-serif Bold';letter-spacing:4.36000299px;fill:#ffffff;stroke:#ffffff;stroke-width:7.55905533;stroke-miterlimit:4;stroke-dasharray:none;stroke-opacity:1"
             id="path922"
             inkscape:connector-curvature="0" />
          <path
             d="m 966.91797,83.559892 v 41.406248 h 48.04683 v 33.33334 h -48.04683 v 61.84896 q 0,10.15625 4.03646,13.80209 4.03646,3.51562 16.01562,3.51562 h 23.95835 v 33.33334 h -39.97397 q -27.60417,0 -39.19271,-11.45833 -11.45834,-11.58855 -11.45834,-39.19272 V 158.29948 H 897.1263 v -33.33334 h 23.17708 V 83.559892 Z"
             style="font-style:normal;font-variant:normal;font-weight:bold;font-stretch:normal;line-height:242.66667175px;font-family:sans-serif;-inkscape-font-specification:'sans-serif Bold';letter-spacing:4.36000299px;fill:#ffffff;stroke:#ffffff;stroke-width:7.55905533;stroke-miterlimit:4;stroke-dasharray:none;stroke-opacity:1"
             id="path924"
             inkscape:connector-curvature="0" />
          <path
             d="m 1098.8822,83.559892 v 41.406248 h 48.0468 v 33.33334 h -48.0468 v 61.84896 q 0,10.15625 4.0364,13.80209 4.0365,3.51562 16.0156,3.51562 h 23.9584 v 33.33334 h -39.974 q -27.6042,0 -39.1927,-11.45833 -11.4583,-11.58855 -11.4583,-39.19272 v -61.84896 h -23.1771 v -33.33334 h 23.1771 V 83.559892 Z"
             style="font-style:normal;font-variant:normal;font-weight:bold;font-stretch:normal;line-height:242.66667175px;font-family:sans-serif;-inkscape-font-specification:'sans-serif Bold';letter-spacing:4.36000299px;fill:#ffffff;stroke:#ffffff;stroke-width:7.55905533;stroke-miterlimit:4;stroke-dasharray:none;stroke-opacity:1"
             id="path926"
             inkscape:connector-curvature="0" />
          <path
             d="m 1325.5078,197.49219 v 13.28125 h -108.9844 q 1.6927,16.40625 11.849,24.60938 10.1562,8.20313 28.3854,8.20313 14.7135,0 30.0781,-4.29688 15.4948,-4.42708 31.7709,-13.28125 v 35.9375 q -16.5365,6.25 -33.073,9.375 -16.5364,3.25521 -33.0729,3.25521 -39.5833,0 -61.5885,-20.05208 -21.875,-20.1823 -21.875,-56.51042 0,-35.67709 21.4843,-56.1198 21.6146,-20.44271 59.375,-20.44271 34.375,0 54.948,20.70313 20.7031,20.70312 20.7031,55.33854 z m -47.9167,-15.49479 q 0,-13.28125 -7.8125,-21.35417 -7.6823,-8.20312 -20.1823,-8.20312 -13.5416,0 -22.0052,7.68229 -8.4635,7.55208 -10.5469,21.875 z"
             style="font-style:normal;font-variant:normal;font-weight:bold;font-stretch:normal;line-height:242.66667175px;font-family:sans-serif;-inkscape-font-specification:'sans-serif Bold';letter-spacing:4.36000299px;fill:#ffffff;stroke:#ffffff;stroke-width:7.55905533;stroke-miterlimit:4;stroke-dasharray:none;stroke-opacity:1"
             id="path928"
             inkscape:connector-curvature="0" />
          <path
             d="m 1473.3574,164.67969 q -6.1198,-2.86458 -12.2396,-4.16667 -5.9896,-1.43229 -12.1093,-1.43229 -17.9688,0 -27.7344,11.58854 -9.6354,11.45834 -9.6354,32.94271 v 67.18751 h -46.6146 V 124.96614 h 46.6146 v 23.95834 q 8.9843,-14.32292 20.5729,-20.83333 11.7187,-6.64063 27.9948,-6.64063 2.3437,0 5.0781,0.26042 2.7344,0.1302 7.9427,0.78125 z"
             style="font-style:normal;font-variant:normal;font-weight:bold;font-stretch:normal;line-height:242.66667175px;font-family:sans-serif;-inkscape-font-specification:'sans-serif Bold';letter-spacing:4.36000299px;fill:#ffffff;stroke:#ffffff;stroke-width:7.55905533;stroke-miterlimit:4;stroke-dasharray:none;stroke-opacity:1"
             id="path930"
             inkscape:connector-curvature="0" />
          <path
             d="m 897.38671,397.45054 q -15.49479,0 -23.69792,11.19792 -8.07292,11.06771 -8.07292,32.03125 0,20.96355 8.07292,32.16146 8.20313,11.06771 23.69792,11.06771 15.23438,0 23.30729,-11.06771 8.07292,-11.19791 8.07292,-32.16146 0,-20.96354 -8.07292,-32.03125 -8.07291,-11.19792 -23.30729,-11.19792 z m 0,-33.33333 q 37.63021,0 58.72396,20.3125 21.22396,20.3125 21.22396,56.25 0,35.93751 -21.22396,56.25001 -21.09375,20.3125 -58.72396,20.3125 -37.76042,0 -59.11459,-20.3125 -21.22396,-20.3125 -21.22396,-56.25001 0,-35.9375 21.22396,-56.25 21.35417,-20.3125 59.11459,-20.3125 z"
             style="font-style:normal;font-variant:normal;font-weight:bold;font-stretch:normal;line-height:242.66667175px;font-family:sans-serif;-inkscape-font-specification:'sans-serif Bold';letter-spacing:4.36000299px;fill:#ffffff;stroke:#ffffff;stroke-width:7.55905533;stroke-miterlimit:4;stroke-dasharray:none;stroke-opacity:1"
             id="path932"
             inkscape:connector-curvature="0" />
          <path
             d="m 1124.0123,407.34638 q -6.1197,-2.86459 -12.2395,-4.16667 -5.9896,-1.43229 -12.1094,-1.43229 -17.9688,0 -27.7344,11.58854 -9.6354,11.45833 -9.6354,32.94271 v 67.18751 H 1015.679 V 367.63283 h 46.6146 v 23.95834 q 8.9844,-14.32292 20.5729,-20.83334 11.7188,-6.64062 27.9948,-6.64062 2.3438,0 5.0781,0.26041 2.7344,0.13021 7.9427,0.78125 z"
             style="font-style:normal;font-variant:normal;font-weight:bold;font-stretch:normal;line-height:242.66667175px;font-family:sans-serif;-inkscape-font-specification:'sans-serif Bold';letter-spacing:4.36000299px;fill:#ffffff;stroke:#ffffff;stroke-width:7.55905533;stroke-miterlimit:4;stroke-dasharray:none;stroke-opacity:1"
             id="path934"
             inkscape:connector-curvature="0" />
          <path
             d="m 1151.8099,310.86199 h 46.6146 v 202.60419 h -46.6146 z"
             style="font-style:normal;font-variant:normal;font-weight:bold;font-stretch:normal;line-height:242.66667175px;font-family:sans-serif;-inkscape-font-specification:'sans-serif Bold';letter-spacing:4.36000299px;fill:#ffffff;stroke:#ffffff;stroke-width:7.55905533;stroke-miterlimit:4;stroke-dasharray:none;stroke-opacity:1"
             id="path936"
             inkscape:connector-curvature="0" />
          <path
             d="m 1347.0553,388.987 v -78.12501 h 46.875 v 202.60419 h -46.875 v -21.09376 q -9.6355,12.89063 -21.224,18.88021 -11.5885,5.98959 -26.8229,5.98959 -26.9531,0 -44.2708,-21.35417 -17.3178,-21.48438 -17.3178,-55.20834 0,-33.72396 17.3178,-55.07813 17.3177,-21.48437 44.2708,-21.48437 15.1042,0 26.6927,6.11979 11.7187,5.98958 21.3542,18.75 z m -30.7292,94.40105 q 14.974,0 22.7865,-10.9375 7.9427,-10.9375 7.9427,-31.77084 0,-20.83333 -7.9427,-31.77083 -7.8125,-10.9375 -22.7865,-10.9375 -14.8438,0 -22.7865,10.9375 -7.8125,10.9375 -7.8125,31.77083 0,20.83334 7.8125,31.77084 7.9427,10.9375 22.7865,10.9375 z"
             style="font-style:normal;font-variant:normal;font-weight:bold;font-stretch:normal;line-height:242.66667175px;font-family:sans-serif;-inkscape-font-specification:'sans-serif Bold';letter-spacing:4.36000299px;fill:#ffffff;stroke:#ffffff;stroke-width:7.55905533;stroke-miterlimit:4;stroke-dasharray:none;stroke-opacity:1"
             id="path938"
             inkscape:connector-curvature="0" />
        </g>
      </g>
    </g>
  </g>
</svg>
